<?xml version="1.0" encoding="UTF-8" standalone="no"?>
<svg width="469px" height="108px" viewBox="0 0 469 108" version="1.1" xmlns="http://www.w3.org/2000/svg" xmlns:xlink="http://www.w3.org/1999/xlink" xmlns:sketch="http://www.bohemiancoding.com/sketch/ns">
    <!-- Generator: Sketch 3.2.2 (9983) - http://www.bohemiancoding.com/sketch -->
    <title>Slice 1</title>
    <desc>Created with Sketch.</desc>
    <defs></defs>
    <g id="Page-1" stroke="none" stroke-width="1" fill="none" fill-rule="evenodd" sketch:type="MSPage">
        <g id="books-icon" sketch:type="MSLayerGroup" transform="translate(368.000000, 10.000000)">
            <path d="M95.0700122,95 L5.07001222,95 C2.30751222,95 0.0700122218,92.75 0.0700122218,90 C0.0700122218,89.1 0.312512222,88.225 0.737512222,87.5 C1.60251222,89 3.21751222,90 5.07001222,90 L95.0700122,90 C96.9200122,90 98.5350122,89 99.4000122,87.5 C99.8250122,88.225 100.070012,89.1 100.070012,90 C100.070012,92.75 97.8300122,95 95.0700122,95" id="Fill-757" fill="#D7D7D7" sketch:type="MSShapeGroup"></path>
            <path d="M100.070012,85 C100.070012,87.75 97.8300122,90 95.0700122,90 L5.07001222,90 C2.30751222,90 0.0700122218,87.75 0.0700122218,85 C0.0700122218,82.25 2.30751222,80 5.07001222,80 L95.0700122,80 C97.8300122,80 100.070012,82.25 100.070012,85" id="Fill-758" fill="#D5925C" sketch:type="MSShapeGroup"></path>
            <path d="M27.5700122,20 L17.5700122,20 C13.4275122,20 10.0700122,23.35 10.0700122,27.5 L10.0700122,80 L35.0700122,80 L35.0700122,27.5 C35.0700122,23.35 31.7100122,20 27.5700122,20" id="Fill-759" fill="#B95756" sketch:type="MSShapeGroup"></path>
            <path d="M82.5700122,10 L72.5700122,10 C68.4275122,10 65.0700122,13.35 65.0700122,17.5 L65.0700122,80 L90.0700122,80 L90.0700122,17.5 C90.0700122,13.35 86.7125122,10 82.5700122,10" id="Fill-760" fill="#E0E0E0" sketch:type="MSShapeGroup"></path>
            <path d="M10.0700122,30 L35.0700122,30 L35.0700122,37.5 L10.0700122,37.5 L10.0700122,30 L10.0700122,30 Z" id="Fill-761" fill="#F0CB84" sketch:type="MSShapeGroup"></path>
            <path d="M10.0700122,62.5 L35.0700122,62.5 L35.0700122,70 L10.0700122,70 L10.0700122,62.5 L10.0700122,62.5 Z" id="Fill-762" fill="#F0CB84" sketch:type="MSShapeGroup"></path>
            <path d="M65.0700122,62.5 L90.0700122,62.5 L90.0700122,70 L65.0700122,70 L65.0700122,62.5 L65.0700122,62.5 Z" id="Fill-763" fill="#FFFFFF" sketch:type="MSShapeGroup"></path>
            <path d="M65.0700122,20 L90.0700122,20 L90.0700122,27.5 L65.0700122,27.5 L65.0700122,20 L65.0700122,20 Z" id="Fill-764" fill="#FFFFFF" sketch:type="MSShapeGroup"></path>
            <path d="M65.0700122,70 L70.0700122,70 L70.0700122,80 L65.0700122,80 L65.0700122,70 L65.0700122,70 Z M65.0700122,27.5 L70.0700122,27.5 L70.0700122,62.5 L65.0700122,62.5 L65.0700122,27.5 L65.0700122,27.5 Z" id="Fill-765" fill="#B3B3A5" sketch:type="MSShapeGroup"></path>
            <path d="M70.0700122,19.55 L65.0700122,19.55 L65.0700122,17.05 L65.0700122,16.975 L65.0700122,16.9 C65.0700122,16.875 65.0725122,16.85 65.0725122,16.825 C65.1675122,13.65 67.2300122,11.025 70.0700122,10 L70.0700122,19.55" id="Fill-767" fill="#B3B3A5" sketch:type="MSShapeGroup"></path>
            <path d="M65.0700122,62.5 L70.0700122,62.5 L70.0700122,70 L65.0700122,70 L65.0700122,62.5 L65.0700122,62.5 Z" id="Fill-768" fill="#CFCEC8" sketch:type="MSShapeGroup"></path>
            <path d="M65.0700122,20 L70.0700122,20 L70.0700122,27.5 L65.0700122,27.5 L65.0700122,20 L65.0700122,20 Z" id="Fill-769" fill="#CFCEC8" sketch:type="MSShapeGroup"></path>
            <path id="Fill-770" fill="#638DA1" sketch:type="MSShapeGroup" d="M35.0750122,27.65 C35.0750122,27.65 35.0750122,27.65 35.0725122,27.65 L35.0750122,27.65"></path>
            <path d="M30.0700122,69.55 L35.0700122,69.55 L35.0700122,79.55 L30.0700122,79.55 L30.0700122,69.55 L30.0700122,69.55 Z M30.0700122,37.05 L35.0700122,37.05 L35.0700122,62.05 L30.0700122,62.05 L30.0700122,37.05 L30.0700122,37.05 Z M30.0700122,30.55 L30.0700122,21 C32.9075122,22.025 34.9700122,24.65 35.0650122,27.825 C35.0675122,27.85 35.0675122,27.875 35.0675122,27.9 L35.0675122,27.975 L35.0700122,28.05 L35.0700122,30.55 L30.0700122,30.55 L30.0700122,30.55 Z" id="Fill-771" fill="#974D4C" sketch:type="MSShapeGroup"></path>
            <path d="M30.0700122,30 L35.0700122,30 L35.0700122,37.5 L30.0700122,37.5 L30.0700122,30 L30.0700122,30 Z" id="Fill-772" fill="#AF7A51" sketch:type="MSShapeGroup"></path>
            <path d="M30.0700122,62.5 L35.0700122,62.5 L35.0700122,70 L30.0700122,70 L30.0700122,62.5 L30.0700122,62.5 Z" id="Fill-773" fill="#AF7A51" sketch:type="MSShapeGroup"></path>
            <path d="M57.5700122,0 L42.5700122,0 C38.4275122,0 35.0700122,3.35 35.0700122,7.5 L35.0700122,80 L65.0700122,80 L65.0700122,7.5 C65.0700122,3.35 61.7125122,0 57.5700122,0" id="Fill-774" fill="#4C5665" sketch:type="MSShapeGroup"></path>
            <path d="M35.0700122,10 L65.0700122,10 L65.0700122,17.5 L35.0700122,17.5 L35.0700122,10 L35.0700122,10 Z" id="Fill-775" fill="#73BBA2" sketch:type="MSShapeGroup"></path>
            <path d="M35.0700122,62.5 L65.0700122,62.5 L65.0700122,70 L35.0700122,70 L35.0700122,62.5 L35.0700122,62.5 Z" id="Fill-776" fill="#73BBA2" sketch:type="MSShapeGroup"></path>
        </g>
        <g id="rocket-icon" sketch:type="MSLayerGroup" transform="translate(181.000000, 0.000000)">
            <path d="M36.8103814,107.68998 C34.3448093,107.68998 33.5476695,105.911954 34.7288136,103.762401 C34.7288136,103.762401 34.9777542,103.178571 35.4147246,102.117063 C35.7934322,102.27629 36.2621822,102.38244 36.8103814,102.38244 C38.0180085,102.38244 39.6255297,101.957837 41.5958686,100.949405 L63.1292373,89.1666667 C73.1795551,83.5672123 76.2092161,81.5768849 76.7388771,72.5806052 L76.8236229,73.1909722 C76.9772246,86.3271329 74.7314619,88.0255456 63.1292373,94.4742063 L41.5958686,106.256944 C39.6255297,107.265377 38.0180085,107.68998 36.8103814,107.68998" id="Fill-877" fill="#D7D7D7" sketch:type="MSShapeGroup"></path>
            <path d="M2.5121822,73.8544147 C0.650423729,73.8544147 -0.324152542,71.7844742 1.14036017,68.016121 C1.49258475,68.3611111 1.96398305,68.546875 2.5121822,68.546875 C3.05508475,68.546875 3.67478814,68.3611111 4.3315678,67.9895833 C4.3315678,67.9895833 18.5820975,62.124752 28.5476695,57.1622024 C28.4973517,57.7991071 28.4549788,58.4360119 28.4231992,59.046379 C28.0974576,59.4444444 27.779661,59.8425099 27.4618644,60.2405754 C25.7351695,61.4878472 23.9449153,62.9739583 22.1149364,64.8050595 C21.6912076,65.2296627 21.2701271,65.6808036 20.8543432,66.1054067 C12.5413136,69.9268353 4.3315678,73.297123 4.3315678,73.297123 C3.67478814,73.6686508 3.05508475,73.8544147 2.5121822,73.8544147" id="Fill-878" fill="#D7D7D7" sketch:type="MSShapeGroup"></path>
            <path d="M50.8490466,65.1765873 C46.7282839,69.3164683 34.7288136,98.4548611 34.7288136,98.4548611 C32.9676907,101.665923 35.6027542,104.00124 41.5958686,100.949405 L63.1292373,89.1666667 C74.7314619,82.718006 76.9772246,81.0195933 76.8236229,67.8834325 L74.6652542,52.3323413 C73.9263771,47.0248016 69.9486229,46.0429067 65.8305085,50.1827877 L50.8490466,65.1765873" id="Fill-879" fill="#B95756" sketch:type="MSShapeGroup"></path>
            <path d="M37.5439619,51.8546627 C33.4231992,55.968006 4.3315678,67.9895833 4.3315678,67.9895833 C1.13241525,69.7676091 -1.19014831,67.1138393 1.85275424,61.1163194 L13.5979873,39.5411706 C20.0466102,27.9176587 21.7309322,25.6619544 34.8585805,25.8211806 L50.3591102,27.9972718 C55.6689619,28.7137897 56.6435381,32.7209821 52.5227754,36.8343254 L37.5439619,51.8546627" id="Fill-880" fill="#B95756" sketch:type="MSShapeGroup"></path>
            <path d="M1.33368644,107.291915 C0.984110169,107.291915 0.740466102,107.212302 0.613347458,107.106151 C0.171080508,106.65501 0.547139831,104.770833 1.58792373,101.957837 C6.30190678,101.639385 25.3246822,92.4573413 37.5068856,80.25 C37.8061441,79.9315476 38.0974576,79.6396329 38.3808263,79.3477183 L39.0217161,79.3477183 C40.1816737,79.3477183 41.4184322,79.3211806 42.71875,79.2681052 C41.373411,81.2849702 39.6679025,83.3814484 37.5068856,85.5575397 C25.0889831,98.0037202 5.56567797,107.291915 1.33368644,107.291915" id="Fill-881" fill="#D7D7D7" sketch:type="MSShapeGroup"></path>
            <path d="M22.1149364,64.8050595 C35.5524364,51.3504464 46.842161,55.4637897 46.842161,55.4637897 C46.842161,55.4637897 50.9443856,66.7688492 37.5068856,80.25 C24.0667373,93.7046131 2.30826271,103.497024 0.613347458,101.798611 C-1.03125,100.153274 8.67743644,78.2862103 22.1149364,64.8050595" id="Fill-882" fill="#D5925C" sketch:type="MSShapeGroup"></path>
            <path d="M33.3516949,53.5530754 C46.7891949,40.0984623 58.0789195,44.2118056 58.0789195,44.2118056 C58.0789195,44.2118056 62.1811441,55.5168651 48.7409958,68.9714782 C35.3034958,82.452629 13.5423729,92.218502 11.8474576,90.5200893 C10.2055085,88.874752 19.9141949,67.0342262 33.3516949,53.5530754" id="Fill-883" fill="#F1CC84" sketch:type="MSShapeGroup"></path>
            <path d="M42.71875,79.2681052 C44.0058263,77.3308532 44.9618644,75.4732143 45.6610169,73.7482639 L45.7748941,73.7482639 C44.9141949,75.4732143 44.0243644,77.3308532 43.1371822,79.2415675 C42.996822,79.2415675 42.8564619,79.2415675 42.71875,79.2681052 M76.7918432,67.6445933 L76.1244703,62.8412698 C77.9438559,61.4878472 79.7102754,59.9751984 81.4051907,58.2767857 C95.5683263,44.0791171 101.005297,24.812748 101.746822,12.8177083 C102.565148,23.6185516 97.909428,47.0513393 81.4051907,63.5843254 C79.9194915,65.0704365 78.3755297,66.4238591 76.7918432,67.6445933" id="Fill-884" fill="#D7D7D7" sketch:type="MSShapeGroup"></path>
            <path d="M43.1371822,79.2415675 C44.0243644,77.3308532 44.9141949,75.4732143 45.7748941,73.7482639 C54.8691737,72.9255952 66.2436441,70.2452877 76.1244703,62.8412698 L76.7918432,67.6445933 C65.782839,76.1897321 52.7902542,78.7108135 43.1371822,79.2415675" id="Fill-885" fill="#974D4C" sketch:type="MSShapeGroup"></path>
            <path d="M39.0217161,79.3477183 L38.3808263,79.3477183 C39.8162076,77.8350694 41.034428,76.3489583 42.0646186,74.8893849 C42.4698093,74.5709325 42.875,74.2524802 43.2748941,73.9074901 C44.0481992,73.8809524 44.845339,73.827877 45.6610169,73.7482639 C44.9618644,75.4732143 44.0058263,77.3308532 42.71875,79.2681052 C41.4184322,79.3211806 40.1816737,79.3477183 39.0217161,79.3477183" id="Fill-886" fill="#D7D7D7" sketch:type="MSShapeGroup"></path>
            <path d="M38.3808263,79.3477183 C37.5677966,79.3477183 36.7971398,79.3211806 36.0715042,79.2946429 C38.0948093,77.9146825 40.1101695,76.4551091 42.0646186,74.8893849 C41.034428,76.3489583 39.8162076,77.8350694 38.3808263,79.3477183" id="Fill-887" fill="#AF7A51" sketch:type="MSShapeGroup"></path>
            <path d="M36.0715042,79.2946429 C35.7669492,79.2681052 35.470339,79.2681052 35.1816737,79.2415675 L41.9401483,73.9871032 C42.3771186,73.9605655 42.8220339,73.9340278 43.2748941,73.9074901 C42.875,74.2524802 42.4698093,74.5709325 42.0646186,74.8893849 C40.1101695,76.4551091 38.0948093,77.9146825 36.0715042,79.2946429 M28.4020127,72.4479167 C28.309322,70.5902778 28.2669492,68.3876488 28.3516949,65.9461806 C28.4417373,68.5999504 28.6509534,70.6698909 28.8125,71.9171627 L28.4020127,72.4479167" id="Fill-888" fill="#C1A66E" sketch:type="MSShapeGroup"></path>
            <path d="M81.4051907,58.2767857 C60.7192797,79.0027282 29.0137712,73.3236607 29.0137712,73.3236607 C29.0137712,73.3236607 23.3543432,41.5580357 44.0376059,20.8320933 C64.7235169,0.106150794 96.0582627,-2.09647817 100.173729,2.01686508 C104.164725,6.02405754 102.088453,37.5508433 81.4051907,58.2767857" id="Fill-889" fill="#E0E0E0" sketch:type="MSShapeGroup"></path>
            <path d="M17.6790254,92.6696429 C17.1202331,92.6696429 16.5402542,92.4042659 15.904661,91.7673611 C15.3617585,91.2366071 15.0916314,90.7323909 15.0227754,90.2281746 C18.5291314,89.1932044 24.4560381,86.4598214 30.8463983,82.6383929 L21.5243644,89.8831845 C20.0916314,91.3162202 18.9396186,92.6696429 17.6790254,92.6696429" id="Fill-890" fill="#AF7A51" sketch:type="MSShapeGroup"></path>
            <path d="M15.0227754,90.2281746 C14.8320975,88.874752 16.251589,87.6805556 17.7770127,86.141369 L28.4020127,72.4479167 C28.595339,76.2958829 29.0137712,78.6312004 29.0137712,78.6312004 C29.0137712,78.6312004 31.3575212,79.0558036 35.1816737,79.2415675 L30.8463983,82.6383929 C24.4560381,86.4598214 18.5291314,89.1932044 15.0227754,90.2281746" id="Fill-891" fill="#C1A66E" sketch:type="MSShapeGroup"></path>
            <path d="M35.1816737,79.2415675 C31.3575212,79.0558036 29.0137712,78.6312004 29.0137712,78.6312004 C29.0137712,78.6312004 28.595339,76.2958829 28.4020127,72.4479167 L28.8125,71.9171627 C28.9263771,72.8194444 29.0137712,73.3236607 29.0137712,73.3236607 C29.0137712,73.3236607 32.9782839,74.0401786 39.0217161,74.0401786 C39.9486229,74.0401786 40.9231992,74.0136409 41.9401483,73.9871032 L35.1816737,79.2415675" id="Fill-892" fill="#9F8A5E" sketch:type="MSShapeGroup"></path>
            <path d="M21.5243644,84.5756448 C19.4560381,86.672123 17.9729873,88.5297619 15.904661,86.4598214 C13.8363347,84.389881 15.7086864,82.9037698 17.7770127,80.8338294 L43.9952331,47.0513393 C46.0635593,44.9813988 55.0360169,43.0972222 57.1043432,45.1671627 C59.1726695,47.2636409 57.3003178,56.2333829 55.2319915,58.3033234 L21.5243644,84.5756448" id="Fill-894" fill="#B95756" sketch:type="MSShapeGroup"></path>
            <path d="M78.2245763,39.4350198 C74.0852754,43.5749008 67.3797669,43.5749008 63.2431144,39.4350198 C59.1064619,35.2951389 59.1064619,28.5545635 63.2431144,24.4146825 C67.3797669,20.2748016 74.0852754,20.2748016 78.2245763,24.4146825 C82.3612288,28.5545635 82.3612288,35.2951389 78.2245763,39.4350198" id="Fill-897" fill="#4C5665" sketch:type="MSShapeGroup"></path>
            <path d="M89.4586864,20.6728671 C87.3903602,22.7428075 84.0376059,22.7428075 81.9692797,20.6728671 C79.9009534,18.6029266 79.9009534,15.2326389 81.9692797,13.1626984 C84.0376059,11.0927579 87.3903602,11.0927579 89.4586864,13.1626984 C91.5270127,15.2326389 91.5270127,18.6029266 89.4586864,20.6728671" id="Fill-898" fill="#4C5665" sketch:type="MSShapeGroup"></path>
        </g>
        <g id="clock-icon" sketch:type="MSLayerGroup">
            <path d="M50.5,105 C22.8840909,105 0.5,82.5163043 0.5,54.7826087 C0.5,54.0179348 0.515909091,53.2578261 0.55,52.5 C1.73863636,79.1745652 23.6477273,100.434783 50.5,100.434783 C77.3522727,100.434783 99.2590909,79.1745652 100.447727,52.5 C100.481818,53.2578261 100.5,54.0179348 100.5,54.7826087 C100.5,82.5163043 78.1136364,105 50.5,105 M91.3454545,52.5 C90.1613636,30.9019565 72.2931818,13.6956522 50.5,13.6956522 C28.7045455,13.6956522 10.8363636,30.9019565 9.65227273,52.5 C9.61136364,51.7444565 9.59090909,50.9843478 9.59090909,50.2173913 C9.59090909,27.5625 27.9409091,9.13043478 50.5,9.13043478 C73.0568182,9.13043478 91.4090909,27.5625 91.4090909,50.2173913 C91.4090909,50.9843478 91.3863636,51.7444565 91.3454545,52.5" id="Fill-75" fill="#D7D7D7" sketch:type="MSShapeGroup"></path>
            <path d="M50.5,0 C22.8840909,0 0.5,22.4836957 0.5,50.2173913 C0.5,77.951087 22.8840909,100.434783 50.5,100.434783 C78.1136364,100.434783 100.5,77.951087 100.5,50.2173913 C100.5,22.4836957 78.1136364,0 50.5,0 M50.5,9.13043478 C73.0568182,9.13043478 91.4090909,27.5625 91.4090909,50.2173913 C91.4090909,72.8722826 73.0568182,91.3043478 50.5,91.3043478 C27.9409091,91.3043478 9.59090909,72.8722826 9.59090909,50.2173913 C9.59090909,27.5625 27.9409091,9.13043478 50.5,9.13043478" id="Fill-76" fill="#B95756" sketch:type="MSShapeGroup"></path>
            <path d="M68.6818182,77.6086957 C67.5181818,77.6086957 66.3545455,77.163587 65.4681818,76.271087 L45.9545455,56.6748913 L45.9545455,36.5217391 C45.9545455,33.9994565 47.9886364,31.9565217 50.5,31.9565217 C53.0090909,31.9565217 55.0454545,33.9994565 55.0454545,36.5217391 L55.0454545,52.8926087 L71.8954545,69.8158696 C73.6704545,71.598587 73.6704545,74.4883696 71.8954545,76.271087 C71.0068182,77.163587 69.8431818,77.6086957 68.6818182,77.6086957" id="Fill-77" fill="#D7D7D7" sketch:type="MSShapeGroup"></path>
            <path d="M68.6818182,73.0434783 C67.5181818,73.0434783 66.3545455,72.5983696 65.4681818,71.7058696 L45.9545455,52.1096739 L45.9545455,31.9565217 C45.9545455,29.4365217 47.9886364,27.3913043 50.5,27.3913043 C53.0090909,27.3913043 55.0454545,29.4365217 55.0454545,31.9565217 L55.0454545,48.3251087 L71.8954545,65.2506522 C73.6704545,67.0333696 73.6704545,69.9231522 71.8954545,71.7058696 C71.0068182,72.5983696 69.8431818,73.0434783 68.6818182,73.0434783" id="Fill-78" fill="#4C5665" sketch:type="MSShapeGroup"></path>
        </g>
    </g>
</svg>