<?xml version="1.0" encoding="UTF-8" standalone="no"?>
<svg width="809px" height="640px" viewBox="0 0 809 640" version="1.1" xmlns="http://www.w3.org/2000/svg" xmlns:xlink="http://www.w3.org/1999/xlink" xmlns:sketch="http://www.bohemiancoding.com/sketch/ns">
    <!-- Generator: Sketch 3.2.2 (9983) - http://www.bohemiancoding.com/sketch -->
    <title>Slice 1</title>
    <desc>Created with Sketch.</desc>
    <defs></defs>
    <g id="Page-1" stroke="none" stroke-width="1" fill="none" fill-rule="evenodd" sketch:type="MSPage">
        <g id="icon-09" sketch:type="MSLayerGroup" transform="translate(442.000000, 445.000000)">
            <path d="M188.335,25 L163.335,25 C163.335,25 156.105,26.665 150.835,13.33 C148.145,6.545 145.235,0 138.335,0 L88.335,0 C81.435,0 78.435,6.505 75.835,13.33 C70.76,26.665 63.335,25 63.335,25 L50.835,25 C50.835,17.64 45.235,15 38.335,15 L25.835,15 C18.93,15 13.335,17.64 13.335,25 C6.435,25 0.835,32.64 0.835,40 L0.835,146.665 C0.835,154.025 6.435,160 13.335,160 L188.335,160 C195.235,160 200.835,154.025 200.835,146.665 L200.835,40 C200.835,32.64 195.235,25 188.335,25" id="Fill-134" fill="#4C5665" sketch:type="MSShapeGroup"></path>
            <path d="M155.835,90 C155.835,114.85 135.685,135 110.835,135 C85.98,135 65.835,114.85 65.835,90 C65.835,65.15 85.98,45 110.835,45 C135.685,45 155.835,65.15 155.835,90" id="Fill-135" fill="#76ACC5" sketch:type="MSShapeGroup"></path>
            <path d="M110.835,155 C80.505,155 55.835,130.325 55.835,100 C55.835,69.72 80.425,45.08 110.685,45 C85.9,45.08 65.835,65.195 65.835,90 C65.835,114.85 85.98,135 110.835,135 C135.685,135 155.835,114.85 155.835,90 C155.835,65.195 135.765,45.08 110.98,45 C141.24,45.08 165.835,69.72 165.835,100 C165.835,130.325 141.16,155 110.835,155" id="Fill-136" fill="#414A55" sketch:type="MSShapeGroup"></path>
            <path d="M110.835,135 C130.13,135 145.835,119.295 145.835,100 C145.835,80.705 130.13,65 110.835,65 C91.535,65 75.835,80.705 75.835,100 C75.835,119.295 91.535,135 110.835,135 C85.98,135 65.835,114.85 65.835,90 C65.835,65.195 85.9,45.08 110.685,45 L110.835,45 L110.98,45 C135.765,45.08 155.835,65.195 155.835,90 C155.835,114.85 135.685,135 110.835,135" id="Fill-137" fill="#638DA1" sketch:type="MSShapeGroup"></path>
            <path d="M110.835,52.5 C90.155,52.5 73.335,69.32 73.335,90 C73.335,110.68 90.155,127.5 110.835,127.5 C131.51,127.5 148.335,110.68 148.335,90 C148.335,69.32 131.51,52.5 110.835,52.5 L110.835,52.5 Z M110.835,142.5 C81.885,142.5 58.335,118.95 58.335,90 C58.335,61.05 81.885,37.5 110.835,37.5 C139.785,37.5 163.335,61.05 163.335,90 C163.335,118.95 139.785,142.5 110.835,142.5 L110.835,142.5 Z" id="Fill-138" fill="#FFFFFF" sketch:type="MSShapeGroup"></path>
        </g>
        <g id="icon-08" sketch:type="MSLayerGroup" transform="translate(188.163000, 439.500000)">
            <path d="M180.835,200 L20.835,200 C9.785,200 0.835,191.045 0.835,180 L0.835,30 C0.835,18.955 9.785,10 20.835,10 L180.835,10 C191.88,10 200.835,18.955 200.835,30 C200.835,18.955 191.88,10 180.835,10 L20.835,10 C9.785,10 0.835,18.955 0.835,30 L0.835,170 C0.835,181.045 9.785,190 20.835,190 L180.835,190 C191.88,190 200.835,181.045 200.835,170 L200.835,180 C200.835,191.045 191.88,200 180.835,200" id="Fill-471" fill="#638DA1" sketch:type="MSShapeGroup"></path>
            <path d="M0.835,47.5 L0.835,170 C0.835,181.045 9.785,190 20.835,190 L180.835,190 C191.88,190 200.835,181.045 200.835,170 L200.835,47.5 L0.835,47.5" id="Fill-472" fill="#FFFFFF" sketch:type="MSShapeGroup"></path>
            <path d="M200.835,47.5 L0.835,47.5 L0.835,30 C0.835,18.955 9.785,10 20.835,10 L180.835,10 C191.88,10 200.835,18.955 200.835,30 L200.835,47.5" id="Fill-473" fill="#567686" sketch:type="MSShapeGroup"></path>
            <path d="M0.835,47.5 L200.835,47.5 L200.835,60 L0.835,60 L0.835,47.5 Z" id="Fill-474" fill="#CFCEC8" sketch:type="MSShapeGroup"></path>
            <path d="M200.835,20 C200.835,8.955 191.88,0 180.835,0 L20.835,0 C9.785,0 0.835,8.955 0.835,20 L0.835,50 L200.835,50 L200.835,20" id="Fill-475" fill="#DEDFCB" sketch:type="MSShapeGroup"></path>
            <path d="M65.835,25 C65.835,19.475 61.355,15 55.835,15 C50.31,15 45.835,19.475 45.835,25 C45.835,30.52 50.31,35 55.835,35 C61.355,35 65.835,30.52 65.835,25" id="Fill-476" fill="#D5925C" sketch:type="MSShapeGroup"></path>
            <path d="M95.835,25 C95.835,19.475 91.355,15 85.835,15 C80.31,15 75.835,19.475 75.835,25 C75.835,30.52 80.31,35 85.835,35 C91.355,35 95.835,30.52 95.835,25" id="Fill-477" fill="#73BBA2" sketch:type="MSShapeGroup"></path>
            <path d="M35.835,25 C35.835,19.475 31.355,15 25.835,15 C20.31,15 15.835,19.475 15.835,25 C15.835,30.52 20.31,35 25.835,35 C31.355,35 35.835,30.52 35.835,25" id="Fill-478" fill="#B95756" sketch:type="MSShapeGroup"></path>
            <path d="M20.835,80 L80.835,80 L80.835,170 L20.835,170 L20.835,80 Z" id="Fill-479" fill="#4C5665" sketch:type="MSShapeGroup"></path>
            <path d="M100.835,80 L180.835,80 L180.835,90 L100.835,90 L100.835,80 Z" id="Fill-480" fill="#DEDFCB" sketch:type="MSShapeGroup"></path>
            <path d="M100.835,100 L180.835,100 L180.835,110 L100.835,110 L100.835,100 Z" id="Fill-481" fill="#DEDFCB" sketch:type="MSShapeGroup"></path>
            <path d="M100.835,120 L180.835,120 L180.835,130 L100.835,130 L100.835,120 Z" id="Fill-482" fill="#DEDFCB" sketch:type="MSShapeGroup"></path>
            <path d="M100.835,140 L180.835,140 L180.835,150 L100.835,150 L100.835,140 Z" id="Fill-483" fill="#DEDFCB" sketch:type="MSShapeGroup"></path>
            <path d="M100.835,160 L180.835,160 L180.835,170 L100.835,170 L100.835,160 Z" id="Fill-484" fill="#DEDFCB" sketch:type="MSShapeGroup"></path>
        </g>
        <g id="icon-07" sketch:type="MSLayerGroup" transform="translate(593.000000, 185.000000)">
            <path d="M22.397625,96.75 L43.897625,96.75 L43.897625,118.25 L22.397625,118.25 L22.397625,96.75 Z" id="Fill-581" fill="#4C5665" sketch:type="MSShapeGroup"></path>
            <path d="M22.397625,134.375 L43.897625,134.375 L43.897625,155.875 L22.397625,155.875 L22.397625,134.375 Z" id="Fill-582" fill="#4C5665" sketch:type="MSShapeGroup"></path>
            <path d="M22.397625,172 L43.897625,172 L43.897625,193.5 L22.397625,193.5 L22.397625,172 Z" id="Fill-583" fill="#4C5665" sketch:type="MSShapeGroup"></path>
            <path d="M22.397625,59.125 L43.897625,59.125 L43.897625,80.625 L22.397625,80.625 L22.397625,59.125 Z" id="Fill-584" fill="#4C5665" sketch:type="MSShapeGroup"></path>
            <path d="M22.397625,21.5 L43.897625,21.5 L43.897625,43 L22.397625,43 L22.397625,21.5 Z" id="Fill-585" fill="#4C5665" sketch:type="MSShapeGroup"></path>
            <path d="M172.897625,96.75 L194.397625,96.75 L194.397625,118.25 L172.897625,118.25 L172.897625,96.75 Z" id="Fill-586" fill="#4C5665" sketch:type="MSShapeGroup"></path>
            <path d="M172.897625,134.375 L194.397625,134.375 L194.397625,155.875 L172.897625,155.875 L172.897625,134.375 Z" id="Fill-587" fill="#4C5665" sketch:type="MSShapeGroup"></path>
            <path d="M172.897625,172 L194.397625,172 L194.397625,193.5 L172.897625,193.5 L172.897625,172 Z" id="Fill-588" fill="#4C5665" sketch:type="MSShapeGroup"></path>
            <path d="M172.897625,59.125 L194.397625,59.125 L194.397625,80.625 L172.897625,80.625 L172.897625,59.125 Z" id="Fill-589" fill="#4C5665" sketch:type="MSShapeGroup"></path>
            <path d="M172.897625,21.5 L194.397625,21.5 L194.397625,43 L172.897625,43 L172.897625,21.5 Z" id="Fill-590" fill="#4C5665" sketch:type="MSShapeGroup"></path>
            <path d="M65.397625,21.5 L151.397625,21.5 L151.397625,96.75 L65.397625,96.75 L65.397625,21.5 Z" id="Fill-591" fill="#4C5665" sketch:type="MSShapeGroup"></path>
            <path d="M65.397625,118.25 L151.397625,118.25 L151.397625,193.5 L65.397625,193.5 L65.397625,118.25 Z" id="Fill-592" fill="#4C5665" sketch:type="MSShapeGroup"></path>
            <path d="M22.397625,118.25 L22.397625,96.75 L43.897625,96.75 L43.897625,107.5 L22.397625,107.5 L22.397625,118.25" id="Fill-594" fill="#414A55" sketch:type="MSShapeGroup"></path>
            <path d="M22.397625,155.875 L22.397625,134.375 L43.897625,134.375 L43.897625,145.125 L22.397625,145.125 L22.397625,155.875" id="Fill-595" fill="#414A55" sketch:type="MSShapeGroup"></path>
            <path d="M22.397625,193.5 L22.397625,172 L43.897625,172 L43.897625,182.75 L22.397625,182.75 L22.397625,193.5" id="Fill-596" fill="#414A55" sketch:type="MSShapeGroup"></path>
            <path d="M22.397625,80.625 L22.397625,59.125 L43.897625,59.125 L43.897625,69.875 L22.397625,69.875 L22.397625,80.625" id="Fill-597" fill="#414A55" sketch:type="MSShapeGroup"></path>
            <path d="M22.397625,43 L22.397625,21.5 L43.897625,21.5 L43.897625,32.25 L22.397625,32.25 L22.397625,43" id="Fill-598" fill="#414A55" sketch:type="MSShapeGroup"></path>
            <path d="M172.897625,118.25 L172.897625,96.75 L194.397625,96.75 L194.397625,107.5 L172.897625,107.5 L172.897625,118.25" id="Fill-599" fill="#414A55" sketch:type="MSShapeGroup"></path>
            <path d="M172.897625,155.875 L172.897625,134.375 L194.397625,134.375 L194.397625,145.125 L172.897625,145.125 L172.897625,155.875" id="Fill-600" fill="#414A55" sketch:type="MSShapeGroup"></path>
            <path d="M172.897625,193.5 L172.897625,172 L194.397625,172 L194.397625,182.75 L172.897625,182.75 L172.897625,193.5" id="Fill-601" fill="#414A55" sketch:type="MSShapeGroup"></path>
            <path d="M172.897625,80.625 L172.897625,59.125 L194.397625,59.125 L194.397625,69.875 L172.897625,69.875 L172.897625,80.625" id="Fill-602" fill="#414A55" sketch:type="MSShapeGroup"></path>
            <path d="M172.897625,43 L172.897625,21.5 L194.397625,21.5 L194.397625,32.25 L172.897625,32.25 L172.897625,43" id="Fill-603" fill="#414A55" sketch:type="MSShapeGroup"></path>
            <path d="M65.397625,96.75 L65.397625,21.5 L151.397625,21.5 L151.397625,32.25 L65.397625,32.25 L65.397625,96.75" id="Fill-604" fill="#414A55" sketch:type="MSShapeGroup"></path>
            <path d="M65.397625,193.5 L65.397625,118.25 L151.397625,118.25 L151.397625,129 L65.397625,129 L65.397625,193.5" id="Fill-605" fill="#414A55" sketch:type="MSShapeGroup"></path>
            <path d="M172.897625,21.5 L194.397625,21.5 L194.397625,43 L172.897625,43 L172.897625,21.5 Z M172.897625,59.125 L194.397625,59.125 L194.397625,80.625 L172.897625,80.625 L172.897625,59.125 Z M172.897625,96.75 L194.397625,96.75 L194.397625,118.25 L172.897625,118.25 L172.897625,96.75 Z M172.897625,134.375 L194.397625,134.375 L194.397625,155.875 L172.897625,155.875 L172.897625,134.375 Z M172.897625,172 L194.397625,172 L194.397625,193.5 L172.897625,193.5 L172.897625,172 Z M65.397625,21.5 L151.397625,21.5 L151.397625,96.75 L65.397625,96.75 L65.397625,21.5 Z M65.397625,118.25 L151.397625,118.25 L151.397625,193.5 L65.397625,193.5 L65.397625,118.25 Z M22.397625,21.5 L43.897625,21.5 L43.897625,43 L22.397625,43 L22.397625,21.5 Z M22.397625,59.125 L43.897625,59.125 L43.897625,80.625 L22.397625,80.625 L22.397625,59.125 Z M22.397625,96.75 L43.897625,96.75 L43.897625,118.25 L22.397625,118.25 L22.397625,96.75 Z M22.397625,134.375 L43.897625,134.375 L43.897625,155.875 L22.397625,155.875 L22.397625,134.375 Z M22.397625,172 L43.897625,172 L43.897625,193.5 L22.397625,193.5 L22.397625,172 Z M194.397625,0 L22.397625,0 C10.518875,0 0.897625,9.626625 0.897625,21.5 L0.897625,193.5 C0.897625,205.373375 10.518875,215 22.397625,215 L194.397625,215 C206.271,215 215.897625,205.373375 215.897625,193.5 L215.897625,21.5 C215.897625,9.626625 206.271,0 194.397625,0 L194.397625,0 Z" id="Fill-606" fill="#DEDFCB" sketch:type="MSShapeGroup"></path>
        </g>
        <g id="icon-06" sketch:type="MSLayerGroup" transform="translate(461.957954, 336.500000) rotate(-90.000000) translate(-461.957954, -336.500000) translate(411.957954, 252.000000)">
            <path d="M16.3195,160.416667 C10.5736667,160.416667 5.90283333,155.745833 5.90283333,150 L5.90283333,16.6666667 C5.90283333,10.9208333 10.5736667,6.25 16.3195,6.25 L82.9861667,6.25 C88.732,6.25 93.4028333,10.9208333 93.4028333,16.6666667 L93.4028333,150 C93.4028333,155.745833 88.732,160.416667 82.9861667,160.416667 L16.3195,160.416667" id="Fill-113" fill="#4C5665" sketch:type="MSShapeGroup"></path>
            <path d="M82.9861667,0 L16.3195,0 C7.11116667,0 -0.347166667,7.4625 -0.347166667,16.6666667 L-0.347166667,150 C-0.347166667,159.204167 7.11116667,166.666667 16.3195,166.666667 L82.9861667,166.666667 C92.1903333,166.666667 99.6486667,159.204167 99.6486667,150 L99.6486667,16.6666667 C99.6486667,7.4625 92.1903333,0 82.9861667,0 M82.9861667,12.5 C85.282,12.5 87.1528333,14.3708333 87.1528333,16.6666667 L87.1528333,150 C87.1528333,152.3 85.282,154.166667 82.9861667,154.166667 L16.3195,154.166667 C14.0195,154.166667 12.1528333,152.3 12.1528333,150 L12.1528333,16.6666667 C12.1528333,14.3708333 14.0195,12.5 16.3195,12.5 L82.9861667,12.5" id="Fill-114" fill="#FFFFFF" sketch:type="MSShapeGroup"></path>
            <path d="M91.3236667,165.083333 L91.107,164.558333 C91.1778333,164.516667 91.2486667,164.475 91.3236667,164.433333 L91.3236667,165.083333" id="Fill-115" fill="#BD936F" sketch:type="MSShapeGroup"></path>
            <path d="M86.1903333,152.658333 L28.2736667,12.5 L82.9861667,12.5 C85.282,12.5 87.1528333,14.3708333 87.1528333,16.6666667 L87.1528333,150 C87.1528333,151.008333 86.7903333,151.9375 86.1903333,152.658333" id="Fill-116" fill="#6D7683" sketch:type="MSShapeGroup"></path>
            <path d="M91.107,164.558333 L86.1903333,152.658333 C86.7903333,151.9375 87.1528333,151.008333 87.1528333,150 L87.1528333,16.6666667 C87.1528333,14.3708333 85.282,12.5 82.9861667,12.5 L28.2736667,12.5 L25.6945,6.25 L91.3236667,6.25 L91.3236667,164.433333 C91.2486667,164.475 91.1778333,164.516667 91.107,164.558333" id="Fill-117" fill="#FFFFFF" sketch:type="MSShapeGroup"></path>
            <path d="M82.9861667,166.666667 L16.3195,166.666667 L-0.347166667,133.333333 L99.6528333,133.333333 L82.9861667,166.666667" id="Fill-118" fill="#FFFFFF" sketch:type="MSShapeGroup"></path>
            <path d="M57.9861667,150 C57.9861667,145.395833 54.2528333,141.666667 49.6528333,141.666667 C45.0486667,141.666667 41.3195,145.395833 41.3195,150 C41.3195,154.604167 45.0486667,158.333333 49.6528333,158.333333 C54.2528333,158.333333 57.9861667,154.604167 57.9861667,150" id="Fill-119" fill="#DEDFCB" sketch:type="MSShapeGroup"></path>
        </g>
        <g id="icon-05" sketch:type="MSLayerGroup" transform="translate(230.457954, 292.000000)">
            <path d="M100.363043,43.75 C100.363043,19.586875 80.8956522,0 56.8847826,0 L56.8847826,43.75 L100.363043,43.75" id="Fill-309" fill="#4C5665" sketch:type="MSShapeGroup"></path>
            <path d="M48.1891304,4.375 C21.773913,4.375 0.363043478,25.921875 0.363043478,52.5 C0.363043478,79.078125 21.773913,100.625 48.1891304,100.625 C60.5630435,100.625 71.8391304,95.895625 80.3326087,88.134375 L48.1891304,52.5 L48.1891304,4.375" id="Fill-311" fill="#73BBA2" sketch:type="MSShapeGroup"></path>
            <path d="M96.0152174,52.5 L48.1891304,52.5 L80.3326087,88.134375 C89.9652174,79.331875 96.0152174,66.626875 96.0152174,52.5" id="Fill-314" fill="#B95756" sketch:type="MSShapeGroup"></path>
        </g>
        <g id="icon-04" sketch:type="MSLayerGroup" transform="translate(0.000000, 295.000000)">
            <path d="M114.395455,0 L14.3954545,0 C6.86363636,0 0.759090909,6.097 0.759090909,13.65 L0.759090909,168.35 C0.759090909,175.903 6.86363636,182 14.3954545,182 L114.395455,182 C121.922727,182 128.031818,175.903 128.031818,168.35 L128.031818,13.65 C128.031818,6.097 121.922727,0 114.395455,0" id="Fill-676" fill="#DEDFCB" sketch:type="MSShapeGroup"></path>
            <path d="M18.9409091,31.85 L64.3954545,31.85 L64.3954545,40.95 L18.9409091,40.95 L18.9409091,31.85 Z" id="Fill-677" fill="#B3B3A5" sketch:type="MSShapeGroup"></path>
            <path d="M50.5818182,113.75 L18.9409091,113.75 L18.9409091,104.65 L53.4863636,104.65 L52.1272727,106.015 L50.5818182,113.75" id="Fill-678" fill="#B3B3A5" sketch:type="MSShapeGroup"></path>
            <path d="M67.1227273,91 L18.9409091,91 L18.9409091,81.9 L76.2136364,81.9 L67.1227273,91" id="Fill-679" fill="#B3B3A5" sketch:type="MSShapeGroup"></path>
            <path d="M89.85,68.25 L18.9409091,68.25 L18.9409091,59.15 L98.9409091,59.15 L89.85,68.25" id="Fill-680" fill="#B3B3A5" sketch:type="MSShapeGroup"></path>
            <path d="M46.0363636,136.5 L18.9409091,136.5 L18.9409091,127.4 L47.8545455,127.4 L46.0363636,136.5" id="Fill-681" fill="#B3B3A5" sketch:type="MSShapeGroup"></path>
            <path d="M109.85,159.25 L94.75,159.25 L103.554545,157.4755 L109.85,151.1965 L109.85,159.25 M41.4909091,159.25 L18.9409091,159.25 L18.9409091,150.15 L43.3090909,150.15 L41.4909091,159.25" id="Fill-682" fill="#B3B3A5" sketch:type="MSShapeGroup"></path>
            <path d="M39.2727273,170.352 L41.4909091,159.25 L94.75,159.25 L60.7,166.075 L39.2727273,170.352" id="Fill-683" fill="#B3B3A5" sketch:type="MSShapeGroup"></path>
            <path d="M109.85,151.1965 L109.85,150.15 L43.3090909,150.15 L43.5590909,148.9215 L46.0363636,136.5 L109.85,136.5 L109.85,127.4 L47.8545455,127.4 L50.5818182,113.75 L109.85,113.75 L109.85,104.65 L53.4863636,104.65 L67.1227273,91 L109.85,91 L109.85,81.9 L76.2136364,81.9 L89.85,68.25 L109.85,68.25 L109.85,59.15 L98.9409091,59.15 L126.054545,32.032 L128.031818,30.03 L128.031818,132.9965 L109.85,151.1965" id="Fill-685" fill="#B3B3A5" sketch:type="MSShapeGroup"></path>
            <path d="M109.85,113.75 L50.5818182,113.75 L52.1272727,106.015 L53.4863636,104.65 L109.85,104.65 L109.85,113.75" id="Fill-686" fill="#949388" sketch:type="MSShapeGroup"></path>
            <path d="M109.85,91 L67.1227273,91 L76.2136364,81.9 L109.85,81.9 L109.85,91" id="Fill-687" fill="#949388" sketch:type="MSShapeGroup"></path>
            <path d="M109.85,68.25 L89.85,68.25 L98.9409091,59.15 L109.85,59.15 L109.85,68.25" id="Fill-688" fill="#949388" sketch:type="MSShapeGroup"></path>
            <path d="M109.85,136.5 L46.0363636,136.5 L47.8545455,127.4 L109.85,127.4 L109.85,136.5" id="Fill-689" fill="#949388" sketch:type="MSShapeGroup"></path>
            <path d="M94.75,159.25 L41.4909091,159.25 L43.3090909,150.15 L109.85,150.15 L109.85,151.1965 L103.554545,157.4755 L94.75,159.25" id="Fill-690" fill="#949388" sketch:type="MSShapeGroup"></path>
            <path d="M177.477273,74.802 C172.154545,80.1255 163.518182,80.1255 158.195455,74.802 L126.054545,42.588 C120.727273,37.2645 120.727273,28.6195 126.054545,23.296 L145.336364,4.004 C150.663636,-1.3195 159.295455,-1.3195 164.622727,4.004 L196.763636,36.1725 C202.090909,41.496 202.090909,50.141 196.763636,55.4645 L177.477273,74.802" id="Fill-691" fill="#B95756" sketch:type="MSShapeGroup"></path>
            <path d="M64.9863636,110.1555 L52.1272727,97.279 L129.268182,20.0655 L142.122727,32.942 L64.9863636,110.1555" id="Fill-692" fill="#D5925C" sketch:type="MSShapeGroup"></path>
            <path d="M84.2681818,142.324 L58.5545455,116.6165 L142.122727,32.942 L167.836364,58.695 L84.2681818,142.324" id="Fill-693" fill="#F1CC84" sketch:type="MSShapeGroup"></path>
            <path d="M103.554545,148.785 L90.6954545,135.9085 L167.836364,58.695 L180.690909,71.5715 L103.554545,148.785" id="Fill-694" fill="#D5925C" sketch:type="MSShapeGroup"></path>
            <path d="M39.2727273,161.6615 L60.7,157.339 L43.5590909,140.1855 L39.2727273,161.6615" id="Fill-695" fill="#4C5665" sketch:type="MSShapeGroup"></path>
            <path d="M52.1272727,97.279 L43.5590909,140.1855 L60.7,157.339 L103.554545,148.785 L97.1272727,142.324 L97.1272727,129.493 L71.4136364,129.493 L71.4136364,103.74 L58.5545455,103.74 L52.1272727,97.279" id="Fill-696" fill="#FFFFFF" sketch:type="MSShapeGroup"></path>
        </g>
        <g id="icon-03" sketch:type="MSLayerGroup" transform="translate(510.000000, 0.000000)">
            <path d="M14.87625,142.5 C10.74,142.5 7.37625,139.13625 7.37625,135 L7.37625,15 C7.37625,10.86375 10.74,7.5 14.87625,7.5 L134.87625,7.5 C139.0125,7.5 142.37625,10.86375 142.37625,15 L142.37625,135 C142.37625,139.13625 139.0125,142.5 134.87625,142.5 L14.87625,142.5" id="Fill-237" fill="#76ACC5" sketch:type="MSShapeGroup"></path>
            <path d="M134.87625,0 L14.87625,0 C6.5925,0 -0.12375,6.71625 -0.12375,15 L-0.12375,135 C-0.12375,143.28375 6.5925,150 14.87625,150 L134.87625,150 C143.16,150 149.87625,143.28375 149.87625,135 L149.87625,15 C149.87625,6.71625 143.16,0 134.87625,0 L134.87625,0 Z M14.87625,15 L134.87625,15 L134.87625,135 L14.87625,135 L14.87625,15 Z" id="Fill-238" fill="#FFFFFF" sketch:type="MSShapeGroup"></path>
            <path d="M14.87625,120 L134.87625,120 L134.87625,135 L14.87625,135 L14.87625,120 Z" id="Fill-239" fill="#FFFFFF" sketch:type="MSShapeGroup"></path>
            <path d="M7.335,120 L138.195,120 L138.195,109.04625 C138.195,109.04625 131.7975,97.8825 125.8725,90.885 C121.4625,85.68375 114.8775,84.21 109.1325,90.6 L98.80875,100.515 L76.3125,71.90625 C67.935,61.2525 54.22875,61.2525 45.8475,71.90625 L7.335,120" id="Fill-240" fill="#4C5665" sketch:type="MSShapeGroup"></path>
            <path d="M116.12625,45 C116.12625,51.21375 111.09,56.25 104.87625,56.25 C98.6625,56.25 93.62625,51.21375 93.62625,45 C93.62625,38.78625 98.6625,33.75 104.87625,33.75 C111.09,33.75 116.12625,38.78625 116.12625,45" id="Fill-241" fill="#F1CC84" sketch:type="MSShapeGroup"></path>
            <path d="M134.87625,0 L14.87625,0 C6.5925,0 -0.12375,6.71625 -0.12375,15 L-0.12375,135 C-0.12375,143.28375 6.5925,150 14.87625,150 L134.87625,150 C143.16,150 149.87625,143.28375 149.87625,135 L149.87625,15 C149.87625,6.71625 143.16,0 134.87625,0 L134.87625,0 Z M14.87625,15 L134.87625,15 L134.87625,135 L14.87625,135 L14.87625,15 Z" id="Fill-242" fill="#FFFFFF" sketch:type="MSShapeGroup"></path>
        </g>
        <g id="icon-02" sketch:type="MSLayerGroup" transform="translate(254.000000, 33.500000)">
            <path d="M160.835,190 C160.835,195.525 156.355,200 150.835,200 L50.835,200 C45.31,200 40.835,195.525 40.835,190 C40.835,184.475 45.31,180 50.835,180 L150.835,180 C156.355,180 160.835,184.475 160.835,190" id="Fill-630" fill="#FFFFFF" sketch:type="MSShapeGroup"></path>
            <path d="M125.835,150 C125.835,150 120.835,180 140.835,180 L60.835,180 C80.835,180 75.835,150 75.835,150 L125.835,150" id="Fill-631" fill="#DEDFCB" sketch:type="MSShapeGroup"></path>
            <path d="M125.325,160 L76.34,160 C76.58,154.49 75.835,150 75.835,150 L125.835,150 C125.835,150 125.085,154.49 125.325,160" id="Fill-633" fill="#B3B3A5" sketch:type="MSShapeGroup"></path>
            <path d="M20.835,142.5 C13.94,142.5 8.335,136.895 8.335,130 L8.335,20 C8.335,13.105 13.94,7.5 20.835,7.5 L180.835,7.5 C187.725,7.5 193.335,13.105 193.335,20 L193.335,130 C193.335,136.895 187.725,142.5 180.835,142.5 L20.835,142.5" id="Fill-634" fill="#4C5665" sketch:type="MSShapeGroup"></path>
            <path d="M180.835,0 L20.835,0 C9.785,0 0.835,8.955 0.835,20 L0.835,130 C0.835,141.045 9.785,150 20.835,150 L180.835,150 C191.88,150 200.835,141.045 200.835,130 L200.835,20 C200.835,8.955 191.88,0 180.835,0 M180.835,15 C183.59,15 185.835,17.245 185.835,20 L185.835,130 C185.835,132.755 183.59,135 180.835,135 L20.835,135 C18.075,135 15.835,132.755 15.835,130 L15.835,20 C15.835,17.245 18.075,15 20.835,15 L180.835,15" id="Fill-635" fill="#FFFFFF" sketch:type="MSShapeGroup"></path>
            <path d="M180.835,135 L144.32,135 L75.305,15 L180.835,15 C183.59,15 185.835,17.245 185.835,20 L185.835,130 C185.835,132.755 183.59,135 180.835,135" id="Fill-636" fill="#6D7683" sketch:type="MSShapeGroup"></path>
            <path d="M190.84,139.395 L146.845,139.395 L144.32,135 L180.835,135 C183.59,135 185.835,132.755 185.835,130 L185.835,20 C185.835,17.245 183.59,15 180.835,15 L75.305,15 L72.085,9.4 L190.84,9.4 L190.84,139.395" id="Fill-637" fill="#FFFFFF" sketch:type="MSShapeGroup"></path>
        </g>
        <g id="icon-01" sketch:type="MSLayerGroup" transform="translate(4.000000, 56.000000)">
            <path d="M130.835,0 L70.835,0 C59.785,0 50.835,8.955 50.835,20 L50.835,120 C50.835,131.045 59.785,140 70.835,140 L130.835,140 C141.88,140 150.835,131.045 150.835,120 L150.835,20 C150.835,8.955 141.88,0 130.835,0 L130.835,0 Z M70.835,20 L130.835,20 L130.835,120 L70.835,120 L70.835,20 Z" id="Fill-420" fill="#D5925C" sketch:type="MSShapeGroup"></path>
            <path d="M0.835,80 L0.835,155 C0.835,166.045 9.79,175 20.835,175 L180.835,175 C191.88,175 200.835,166.045 200.835,155 L200.835,80 L0.835,80" id="Fill-421" fill="#D5925C" sketch:type="MSShapeGroup"></path>
            <path d="M200.835,80 L150.835,80 L150.835,45 L180.835,45 C191.88,45 200.835,53.955 200.835,65 L200.835,80 M50.835,80 L0.835,80 L0.835,65 C0.835,53.955 9.79,45 20.835,45 L50.835,45 L50.835,80 M130.835,67.675 C127.89,65.975 124.475,65 120.835,65 L80.835,65 C77.19,65 73.775,65.975 70.835,67.675 L70.835,45 L130.835,45 L130.835,67.675" id="Fill-422" fill="#3A4048" sketch:type="MSShapeGroup"></path>
            <path d="M150.835,80 L140.205,80 C138.85,74.745 135.42,70.325 130.835,67.675 L130.835,45 L150.835,45 L150.835,80 M61.465,80 L50.835,80 L50.835,45 L70.835,45 L70.835,67.675 C66.25,70.325 62.815,74.745 61.465,80" id="Fill-423" fill="#AF7A51" sketch:type="MSShapeGroup"></path>
            <path d="M200.835,90 L140.835,90 L140.835,85 C140.835,83.275 140.615,81.6 140.205,80 L200.835,80 L200.835,90 M60.835,90 L0.835,90 L0.835,80 L61.465,80 C61.05,81.6 60.835,83.275 60.835,85 L60.835,90" id="Fill-424" fill="#AF7A51" sketch:type="MSShapeGroup"></path>
            <path d="M120.835,120 L80.835,120 C69.785,120 60.835,111.045 60.835,100 L60.835,90 L140.835,90 L140.835,100 C140.835,111.045 131.88,120 120.835,120" id="Fill-425" fill="#AF7A51" sketch:type="MSShapeGroup"></path>
            <path d="M130.835,80 L70.835,80 L70.835,67.675 C73.775,65.975 77.19,65 80.835,65 L120.835,65 C124.475,65 127.89,65.975 130.835,67.675 L130.835,80" id="Fill-426" fill="#34393F" sketch:type="MSShapeGroup"></path>
            <path d="M140.205,80 L130.835,80 L130.835,67.675 C135.42,70.325 138.85,74.745 140.205,80 M70.835,80 L61.465,80 C62.815,74.745 66.25,70.325 70.835,67.675 L70.835,80" id="Fill-427" fill="#906747" sketch:type="MSShapeGroup"></path>
            <path d="M140.835,90 L60.835,90 L60.835,85 C60.835,83.275 61.05,81.6 61.465,80 L140.205,80 C140.615,81.6 140.835,83.275 140.835,85 L140.835,90" id="Fill-428" fill="#906747" sketch:type="MSShapeGroup"></path>
            <path d="M120.835,55 L80.835,55 C69.79,55 60.835,63.955 60.835,75 L60.835,90 C60.835,101.045 69.79,110 80.835,110 L120.835,110 C131.88,110 140.835,101.045 140.835,90 L140.835,75 C140.835,63.955 131.88,55 120.835,55 L120.835,55 Z M80.835,75 L120.835,75 L120.835,90 L80.835,90 L80.835,75 Z" id="Fill-429" fill="#F1CC84" sketch:type="MSShapeGroup"></path>
            <path d="M200.835,55 C200.835,43.955 191.88,35 180.835,35 L20.835,35 C9.785,35 0.835,43.955 0.835,55 L0.835,80 L200.835,80 L200.835,55" id="Fill-430" fill="#D5925C" sketch:type="MSShapeGroup"></path>
        </g>
    </g>
</svg>