<?xml version="1.0" encoding="UTF-8" standalone="no"?>
<svg width="554px" height="187px" viewBox="0 0 554 187" version="1.1" xmlns="http://www.w3.org/2000/svg" xmlns:xlink="http://www.w3.org/1999/xlink" xmlns:sketch="http://www.bohemiancoding.com/sketch/ns">
    <!-- Generator: Sketch 3.2.2 (9983) - http://www.bohemiancoding.com/sketch -->
    <title>Slice 1</title>
    <desc>Created with Sketch.</desc>
    <defs></defs>
    <g id="Page-1" stroke="none" stroke-width="1" fill="none" fill-rule="evenodd" sketch:type="MSPage">
        <g id="Group-2" sketch:type="MSLayerGroup" transform="translate(0.000000, 2.000000)" fill="#2A3744">
            <path d="M293.343243,135.234817 L293.343243,85.1686761 C293.343243,75.5281127 286.521187,73.6621972 283.112743,73.6621972 C279.699131,73.6621972 272.879659,75.5281127 272.879659,85.1686761 L272.879659,135.234817 L247.451995,135.234817 L247.451995,85.1686761 C247.451995,75.5281127 240.629939,73.6621972 237.218911,73.6621972 C233.807883,73.6621972 226.985827,75.5281127 226.985827,85.1686761 L226.985827,135.234817 L201.560748,135.234817 L201.560748,51.5821972 L226.36564,51.5821972 L226.36564,58.4238873 C231.482182,53.2952113 239.079472,50.6492394 245.746481,50.6492394 C253.963958,50.6492394 260.630967,53.2952113 266.057603,59.512338 C273.342215,53.1371268 280.009224,50.6492394 289.622121,50.6492394 C297.529505,50.6492394 305.126794,53.2952113 309.62315,57.8019155 C316.755299,64.9545915 318.770907,72.8847324 318.770907,81.747831 L318.770907,135.234817 L293.343243,135.234817" id="Fill-5" sketch:type="MSShapeGroup"></path>
            <path d="M379.140935,78.171493 C377.587883,74.5951549 374.179439,71.6407887 368.132617,71.6407887 C362.085794,71.6407887 358.674766,74.5951549 357.124299,78.171493 C356.038972,80.3483944 355.728879,82.6807887 355.728879,84.7021972 L380.536355,84.7021972 C380.536355,82.6807887 380.226262,80.3483944 379.140935,78.171493 L379.140935,78.171493 Z M355.728879,101.65093 C355.728879,108.49262 361.000467,114.709746 370.458318,114.709746 C379.295981,114.709746 383.17215,112.221859 387.665921,107.715155 L402.8605,122.950873 C394.33293,131.502986 385.962991,136.167775 370.458318,136.167775 C352.007757,136.167775 330.766355,129.481577 330.766355,93.4098028 C330.766355,66.0430423 346.271028,50.6492394 368.132617,50.6492394 C392.319907,50.6492394 405.651341,68.3754366 405.651341,90.2999437 L405.651341,101.65093 L355.728879,101.65093 L355.728879,101.65093 Z" id="Fill-6" sketch:type="MSShapeGroup"></path>
            <path d="M445.666318,103.089239 C437.260201,103.089239 423.794393,99.463662 423.794393,78.1637183 C423.794393,56.8663662 437.260201,53.2407887 445.666318,53.2407887 C452.444444,53.2407887 457.685023,55.5058028 461.661972,59.4941972 L451.627864,69.5545915 C449.731126,67.6498028 448.10572,66.6546479 445.666318,66.6546479 C443.676551,66.6546479 442.322477,67.2895775 441.056262,68.5568451 C439.337827,70.3709296 438.61686,73.5429859 438.61686,78.1637183 C438.61686,82.7870423 439.337827,85.9590986 441.056262,87.7705915 C442.322477,89.0404507 443.676551,89.6753803 445.666318,89.6753803 C448.10572,89.6753803 449.731126,88.6776338 451.627864,86.7754366 L461.661972,96.835831 C457.685023,100.824225 452.444444,103.089239 445.666318,103.089239" id="Fill-7" sketch:type="MSShapeGroup"></path>
            <path d="M490.082037,68.0126197 C489.177598,67.108169 487.913967,66.6546479 486.107673,66.6546479 C484.298794,66.6546479 483.032579,67.108169 482.130724,68.0126197 C480.233986,69.9174085 479.96007,73.3615775 479.96007,78.1637183 C479.96007,82.9684507 480.233986,86.4126197 482.130724,88.3148169 C483.032579,89.2218592 484.298794,89.6753803 486.107673,89.6753803 C487.913967,89.6753803 489.177598,89.2218592 490.082037,88.3148169 C491.978776,86.4126197 492.252692,82.9684507 492.252692,78.1637183 C492.252692,73.3615775 491.978776,69.9174085 490.082037,68.0126197 L490.082037,68.0126197 Z M501.741551,96.835831 C498.84993,99.9171831 493.968542,103.089239 486.107673,103.089239 C478.24422,103.089239 473.362832,99.9171831 470.47121,96.835831 C466.403818,92.3939155 465.140187,87.7705915 465.140187,78.1637183 C465.140187,68.6475493 466.403818,63.9361127 470.47121,59.4941972 C473.362832,56.4128451 478.24422,53.2407887 486.107673,53.2407887 C493.968542,53.2407887 498.84993,56.4128451 501.741551,59.4941972 C505.808944,63.9361127 507.072575,68.6475493 507.072575,78.1637183 C507.072575,87.7705915 505.808944,92.3939155 501.741551,96.835831 L501.741551,96.835831 Z" id="Fill-8" sketch:type="MSShapeGroup"></path>
            <path d="M503.901869,118.029521 C503.901869,116.604169 502.736435,115.437972 501.317757,115.437972 L431.546729,115.437972 C430.125467,115.437972 428.962617,116.604169 428.962617,118.029521 L428.962617,132.93093 C428.962617,134.356282 430.125467,135.522479 431.546729,135.522479 L501.317757,135.522479 C502.736435,135.522479 503.901869,134.356282 503.901869,132.93093 L503.901869,118.029521" id="Fill-9" sketch:type="MSShapeGroup"></path>
            <path d="M91.7850794,101.65093 L78.9162009,101.65093 C73.9547056,101.65093 70.853771,104.449803 70.853771,108.337127 C70.853771,112.068958 73.6446121,115.331718 79.2262944,115.331718 C84.1877897,115.331718 86.5134907,114.865239 89.3043318,112.221859 C91.1648925,110.514028 91.7850794,107.870648 91.7850794,103.827831 L91.7850794,101.65093 L91.7850794,101.65093 Z M92.4052664,135.234817 L92.4052664,128.395718 C87.2887243,133.524394 82.6373224,136.012282 73.7996589,136.012282 C65.4271355,136.012282 58.4500327,133.213408 53.7986308,128.54862 C48.9947664,123.728338 46.5140187,116.733746 46.5140187,108.959099 C46.5140187,96.364169 55.0390047,84.7021972 74.884986,84.7021972 L91.7850794,84.7021972 L91.7850794,82.5252958 C91.7850794,74.9061408 88.0639579,72.1072676 79.2262944,72.1072676 C72.7143318,72.1072676 69.9234907,73.6621972 65.8922757,77.7050141 L50.0775093,61.8447324 C58.6050794,53.2952113 66.3574159,50.6492394 80.4666682,50.6492394 C104.343864,50.6492394 117.212743,60.6007887 117.212743,80.9703662 L117.212743,135.234817 L92.4052664,135.234817 L92.4052664,135.234817 Z" id="Fill-3" sketch:type="MSShapeGroup"></path>
            <path d="M166.726916,136.167775 C152.30757,136.167775 129.205607,129.948056 129.205607,93.4098028 C129.205607,56.8689577 152.30757,50.6492394 166.726916,50.6492394 C178.355421,50.6492394 187.345547,54.5365634 194.167603,61.3782535 L176.96,78.6379718 C173.701435,75.3726197 170.913178,73.6621972 166.726916,73.6621972 C163.315888,73.6621972 160.990187,74.7506479 158.819533,76.9275493 C155.873645,80.0374085 154.633271,85.479662 154.633271,93.4098028 C154.633271,101.339944 155.873645,106.782197 158.819533,109.889465 C160.990187,112.068958 163.315888,113.157408 166.726916,113.157408 C170.913178,113.157408 173.701435,111.444394 176.96,108.181634 L194.167603,125.438761 C187.345547,132.280451 178.355421,136.167775 166.726916,136.167775" id="Fill-4" sketch:type="MSShapeGroup"></path>
            <path d="M20.6728972,163.67707 L532.756065,163.67707 L532.756065,19.5532394 L20.6728972,19.5532394 L20.6728972,163.67707 Z M0,-1.18174648 L553.428963,-1.18174648 L553.428963,184.406873 L0,184.406873 L0,-1.18174648 Z" id="Fill-11" sketch:type="MSShapeGroup"></path>
        </g>
    </g>
</svg>